<svg width="113" height="56" viewBox="0 0 113 56" fill="none" xmlns="http://www.w3.org/2000/svg">
<path d="M11.6366 9.3986C11.6366 9.05234 11.3545 8.77163 11.0064 8.77163C10.6584 8.77163 10.3763 9.05234 10.3763 9.3986H11.6366ZM10.3763 25.817V26.444H11.6366V25.817H10.3763ZM39.2449 9.3986C39.2449 9.05234 38.9627 8.77163 38.6148 8.77163C38.2667 8.77163 37.9846 9.05234 37.9846 9.3986H39.2449ZM37.9846 16.2198V16.8468H39.2449V16.2198H37.9846ZM42.5107 41.0017C42.5107 41.3481 42.7929 41.6287 43.1408 41.6287C43.4888 41.6287 43.771 41.3481 43.771 41.0017H42.5107ZM102.027 10.0256C102.375 10.0256 102.657 9.74486 102.657 9.3986C102.657 9.05234 102.375 8.77163 102.027 8.77163V10.0256ZM43.1492 46.3327C42.8012 46.3327 42.519 46.6135 42.519 46.9597C42.519 47.306 42.8012 47.5866 43.1492 47.5866V46.3327ZM3.90701 1.25393H109.093V0H3.90701V1.25393ZM111.74 3.88718V52.1128H113V3.88718H111.74ZM109.093 54.7461H3.90701V56H109.093V54.7461ZM1.26032 52.1128V3.88718H0V52.1128H1.26032ZM3.90701 54.7461C2.44528 54.7461 1.26032 53.5671 1.26032 52.1128H0C0 54.2597 1.74923 56 3.90701 56V54.7461ZM111.74 52.1128C111.74 53.5671 110.555 54.7461 109.093 54.7461V56C111.251 56 113 54.2597 113 52.1128H111.74ZM109.093 1.25393C110.555 1.25393 111.74 2.43288 111.74 3.88718H113C113 1.74036 111.251 0 109.093 0V1.25393ZM3.90701 0C1.74923 0 0 1.74036 0 3.88718H1.26032C1.26032 2.43288 2.44529 1.25393 3.90701 1.25393V0ZM10.3763 9.3986V25.817H11.6366V9.3986H10.3763ZM37.9846 9.3986V16.2198H39.2449V9.3986H37.9846ZM10.3763 36.1661V38.7123H11.6366V36.1661H10.3763ZM19.1985 47.4898H35.2119V46.2359H19.1985V47.4898ZM39.2449 43.4773V26.4366H37.9846V43.4773H39.2449ZM35.2119 47.4898C37.4393 47.4898 39.2449 45.6934 39.2449 43.4773H37.9846C37.9846 45.0009 36.7432 46.2359 35.2119 46.2359V47.4898ZM10.3763 38.7123C10.3763 43.56 14.3261 47.4898 19.1985 47.4898V46.2359C15.0222 46.2359 11.6366 42.8676 11.6366 38.7123H10.3763ZM50.0726 10.0256H59.8413V8.77163H50.0726V10.0256ZM65.7648 15.919V21.8993H67.0252V15.919H65.7648ZM43.771 41.0017V28.9213H42.5107V41.0017H43.771ZM43.771 28.9213V16.2952H42.5107V28.9213H43.771ZM59.3372 28.2943H43.1408V29.5482H59.3372V28.2943ZM65.7648 21.8993C65.7648 25.4312 62.8871 28.2943 59.3372 28.2943V29.5482C63.5831 29.5482 67.0252 26.1237 67.0252 21.8993H65.7648ZM59.8413 10.0256C63.1127 10.0256 65.7648 12.6642 65.7648 15.919H67.0252C67.0252 11.9716 63.8088 8.77163 59.8413 8.77163V10.0256ZM50.0726 8.77163C45.8963 8.77163 42.5107 12.1401 42.5107 16.2952H43.771C43.771 12.8326 46.5924 10.0256 50.0726 10.0256V8.77163ZM102.027 8.77163H78.4831V10.0256H102.027V8.77163ZM70.2909 16.9221V21.3859H71.5513V16.9221H70.2909ZM78.4831 29.5364H81.8967V28.2825H78.4831V29.5364ZM70.2909 21.3859C70.2909 25.8872 73.9586 29.5364 78.4831 29.5364V28.2825C74.6547 28.2825 71.5513 25.1948 71.5513 21.3859H70.2909ZM78.4831 8.77163C73.9586 8.77163 70.2909 12.4208 70.2909 16.9221H71.5513C71.5513 13.1133 74.6547 10.0256 78.4831 10.0256V8.77163ZM91.4077 29.51H95.3743V28.256H91.4077V29.51ZM102.302 36.169L102.407 39.1986L103.667 39.1553L103.562 36.1258L102.302 36.169ZM95.4792 46.3327H43.1492V47.5866H95.4792V46.3327ZM102.407 39.1986C102.542 43.0982 99.4012 46.3327 95.4792 46.3327V47.5866C100.114 47.5866 103.826 43.764 103.667 39.1553L102.407 39.1986ZM95.3743 29.51C99.1097 29.51 102.173 32.4548 102.302 36.169L103.562 36.1258C103.409 31.7363 99.7889 28.256 95.3743 28.256V29.51Z" fill="black"/>
</svg>
